# xmcd CD database file
#
# Track frame offsets:
#	150
#	10219
#	28648
#	45981
#	63031
#	78926
#	91224
#	106776
#	123659
#	132272
#	147480
#	162289
#	171684
#	189061
#
# Disc length: 2713 seconds
#
# Revision: 2
# Processed by: cddbd v1.5.2PL0 Copyright (c) Steve Scherf et al.
# Submitted via: CDex 1.50
#
DISCID=ae0a970e
DTITLE=Blaskapelle Strahovanka - 60 Jahre Ada Dosko
DYEAR=1900
DGENRE=Blasmusik
TTITLE0=Svitavankapolka
TTITLE1=Ach, Vater
TTITLE2=Sterne auf dem Himmel
TTITLE3=Mein Mädchen
TTITLE4=Olesnockapolka
TTITLE5=Peilsteinwalzer
TTITLE6=Musikantenstadl-Polka
TTITLE7=Walzer-Polka
TTITLE8=Leb`wohl, Liebe
TTITLE9=Wer alleine ist,
TTITLE10=Begrüssungswalzer
TTITLE11=Slavickupolka
TTITLE12=Du liebst mich
TTITLE13=Unser Wald
EXTD=
EXTT0=
EXTT1=
EXTT2=
EXTT3=
EXTT4=
EXTT5=
EXTT6=
EXTT7=
EXTT8=
EXTT9=
EXTT10=
EXTT11=
EXTT12=
EXTT13=
PLAYORDER=
